<?xml version="1.0" encoding="iso-8859-1"?>
<!-- Uploaded to: SVG Repo, www.svgrepo.com, Generator: SVG Repo Mixer Tools -->
<svg version="1.1" id="Layer_1" xmlns="http://www.w3.org/2000/svg" xmlns:xlink="http://www.w3.org/1999/xlink" 
	 viewBox="0 0 512 512" xml:space="preserve">
<path style="fill:#CCCCCC;" d="M342.083,278.46H65.327v87.052c0,76.424,61.954,138.378,138.378,138.378l0,0
	c76.424,0,138.378-61.954,138.378-138.378V278.46z"/>
<path style="fill:#B3B3B3;" d="M202.392,503.876c-75.828-0.7-137.066-62.37-137.066-138.365v-87.054h36.854v87.054
	C102.18,441.34,146.918,502.922,202.392,503.876z"/>
<g>
	<path style="fill:#CCCCCC;" d="M414.543,150.933L414.543,150.933c-17.983,0-32.56,14.577-32.56,32.56v63.084h65.12v-63.084
		C447.103,165.51,432.526,150.933,414.543,150.933z"/>
	<path style="fill:#CCCCCC;" d="M447.103,291.346h-65.12v95.644l0,0c35.964,0,65.118-29.154,65.118-65.118v-30.526H447.103z"/>
	<rect x="73.462" y="159.851" style="fill:#CCCCCC;" width="44.804" height="77.916"/>
	<path style="fill:#CCCCCC;" d="M95.868,44.003L95.868,44.003c-12.372,0-22.401,10.029-22.401,22.401v55.514h44.803V66.404
		C118.27,54.032,108.24,44.003,95.868,44.003z"/>
	<rect x="148.069" y="148.025" style="fill:#CCCCCC;" width="44.804" height="89.73"/>
	<path style="fill:#CCCCCC;" d="M170.472,14.455L170.472,14.455c-12.372,0-22.401,10.029-22.401,22.401v73.242h44.803V36.857
		C192.874,24.485,182.844,14.455,170.472,14.455z"/>
	<rect x="222.676" y="142.118" style="fill:#CCCCCC;" width="44.804" height="95.648"/>
	<path style="fill:#CCCCCC;" d="M245.077,8.546L245.077,8.546c-12.372,0-22.401,10.029-22.401,22.401v73.242h44.803V30.947
		C267.479,18.576,257.448,8.546,245.077,8.546z"/>
	<rect x="297.282" y="148.025" style="fill:#CCCCCC;" width="44.804" height="89.73"/>
	<path style="fill:#CCCCCC;" d="M319.681,32.184L319.681,32.184c-12.372,0-22.401,10.029-22.401,22.401v55.514h44.803V54.585
		C342.083,42.213,332.053,32.184,319.681,32.184z"/>
</g>
<g>
	<circle style="fill:#F7A872;" cx="142.539" cy="355.567" r="30.136"/>
	<circle style="fill:#F7A872;" cx="264.87" cy="355.567" r="30.136"/>
</g>
<path d="M289.497,462.843c-23.75,20.958-54.296,32.501-86.008,32.501c-71.71,0-130.05-58.341-130.05-130.05V286.57h41.546
	c4.599,0,8.328-3.729,8.328-8.328s-3.729-8.328-8.328-8.328h-11.001V245.87h14.07c4.599,0,8.328-3.729,8.328-8.328v-77.914
	c0-4.599-3.729-8.328-8.328-8.328h-14.07v-21.272h14.07c4.599,0,8.328-3.729,8.328-8.328V66.187
	c0-16.944-13.785-30.729-30.729-30.729s-30.73,13.784-30.73,30.729V121.7c0,4.599,3.729,8.328,8.328,8.328h14.077V151.3H73.251
	c-4.599,0-8.328,3.729-8.328,8.328v77.915c0,4.599,3.729,8.328,8.328,8.328h14.077v24.044H65.111c-4.599,0-8.328,3.729-8.328,8.328
	v87.052C56.783,446.188,122.596,512,203.489,512c35.774,0,70.233-13.023,97.03-36.667c3.448-3.044,3.776-8.306,0.734-11.755
	C298.211,460.131,292.95,459.8,289.497,462.843z M81.579,66.187c0-7.76,6.314-14.073,14.073-14.073s14.073,6.314,14.073,14.073
	v47.186H81.579V66.187z M81.579,167.955h28.147v61.259H81.579V167.955z"/>
<path d="M446.887,254.688c4.6,0,8.328-3.729,8.328-8.328v-63.084c0-22.545-18.342-40.888-40.887-40.888
	c-22.546,0-40.888,18.342-40.888,40.888v63.084c0,4.599,3.728,8.328,8.328,8.328H406V282.8h-24.232c-4.6,0-8.328,3.729-8.328,8.328
	v40.743h-23.246v-53.629c0-4.599-3.728-8.328-8.328-8.328h-14.073V245.87h14.073c4.6,0,8.328-3.729,8.328-8.328v-89.733
	c0-4.599-3.728-8.328-8.328-8.328h-14.073v-21.272h14.073c4.6,0,8.328-3.729,8.328-8.328V54.368
	c0-16.944-13.784-30.729-30.729-30.729s-30.73,13.785-30.73,30.729v55.514c0,4.599,3.728,8.328,8.328,8.328h14.074v21.272h-14.074
	c-4.6,0-8.328,3.729-8.328,8.328v89.733c0,4.599,3.728,8.328,8.328,8.328h14.074v24.044h-57.949V245.87h14.073
	c4.6,0,8.328-3.729,8.328-8.328v-33.431c0-4.599-3.728-8.328-8.328-8.328c-4.6,0-8.328,3.729-8.328,8.328v25.104h-28.147v-78.987
	h28.147v26.124c0,4.599,3.728,8.328,8.328,8.328c4.6,0,8.328-3.729,8.328-8.328v-34.452c0-4.599-3.728-8.328-8.328-8.328h-14.073
	V112.3h14.073c4.6,0,8.328-3.729,8.328-8.328V30.729C275.591,13.785,261.806,0,244.862,0c-16.944,0-30.729,13.785-30.729,30.729
	v73.242c0,4.599,3.729,8.328,8.328,8.328h14.073v21.272h-14.073c-4.599,0-8.328,3.729-8.328,8.328v95.643
	c0,4.599,3.729,8.328,8.328,8.328h14.073v24.044h-57.949v-24.044h14.073c4.599,0,8.328-3.729,8.328-8.328v-89.733
	c0-4.599-3.729-8.328-8.328-8.328h-14.073v-21.272h14.073c4.599,0,8.328-3.729,8.328-8.328V36.639
	c0-16.944-13.785-30.729-30.729-30.729s-30.729,13.785-30.729,30.729v73.242c0,4.599,3.729,8.328,8.328,8.328h14.073v21.272h-14.073
	c-4.599,0-8.328,3.729-8.328,8.328v89.733c0,4.599,3.729,8.328,8.328,8.328h14.073v24.044h-19.185c-4.599,0-8.328,3.729-8.328,8.328
	s3.729,8.328,8.328,8.328H333.54v78.724c0,30.005-9.926,58.19-28.705,81.508c-2.886,3.582-2.321,8.824,1.262,11.709
	c1.539,1.239,3.384,1.842,5.218,1.842c2.434,0,4.846-1.063,6.491-3.105c20.886-25.934,32.389-58.592,32.389-91.954v-16.767h23.246
	v38.244c0,4.599,3.728,8.328,8.328,8.328c40.499,0,73.447-32.948,73.447-73.447v-30.524c0-4.599-3.728-8.328-8.328-8.328h-24.233
	v-28.113h24.231V254.688z M305.393,54.368c0-7.76,6.314-14.073,14.074-14.073c7.759,0,14.073,6.314,14.073,14.073v47.186h-28.147
	V54.368z M305.393,156.137h28.147v73.078h-28.147V156.137z M230.788,30.729c0-7.76,6.314-14.073,14.073-14.073
	s14.073,6.314,14.073,14.073v64.914h-28.147V30.729H230.788z M156.184,36.639c0-7.76,6.314-14.073,14.073-14.073
	c7.759,0,14.073,6.314,14.073,14.073v64.914h-28.147V36.639H156.184z M156.184,156.137h28.147v73.078h-28.147V156.137z
	 M438.559,321.653c0,28.486-21.082,52.141-48.464,56.182v-78.379h48.464V321.653z M390.096,183.275
	c0-13.361,10.871-24.232,24.232-24.232s24.231,10.871,24.231,24.232v54.756h-48.464v-54.756H390.096z"/>
<path d="M103.864,355.354c0,21.209,17.255,38.465,38.466,38.465c21.209,0,38.465-17.255,38.465-38.465
	c0-21.211-17.255-38.466-38.465-38.466C121.119,316.888,103.864,334.143,103.864,355.354z M142.328,333.544
	c12.025,0,21.809,9.784,21.809,21.81c0,12.025-9.784,21.809-21.809,21.809c-12.027,0-21.81-9.784-21.81-21.809
	C120.519,343.327,130.303,333.544,142.328,333.544z"/>
<path d="M303.116,355.354c0-21.211-17.255-38.466-38.466-38.466s-38.466,17.255-38.466,38.466c0,21.209,17.255,38.465,38.466,38.465
	C285.861,393.819,303.116,376.563,303.116,355.354z M242.841,355.354c0-12.027,9.784-21.81,21.81-21.81
	c12.025,0,21.81,9.784,21.81,21.81c0,12.025-9.785,21.809-21.81,21.809C252.625,377.163,242.841,367.379,242.841,355.354z"/>
</svg>